<?xml version="1.0" encoding="UTF-8"?>
<svg width="38px" height="48px" viewBox="0 0 38 48" version="1.1" xmlns="http://www.w3.org/2000/svg" xmlns:xlink="http://www.w3.org/1999/xlink">
    <title>Bike Station Marker</title>
    <defs>
        <filter x="-25.0%" y="-15.6%" width="150.0%" height="143.8%" filterUnits="objectBoundingBox" id="filter-1">
            <feOffset dx="0" dy="3" in="SourceAlpha" result="shadowOffsetOuter1"></feOffset>
            <feGaussianBlur stdDeviation="2" in="shadowOffsetOuter1" result="shadowBlurOuter1"></feGaussianBlur>
            <feColorMatrix values="0 0 0 0 0   0 0 0 0 0   0 0 0 0 0  0 0 0 0.2 0" type="matrix" in="shadowBlurOuter1" result="shadowMatrixOuter1"></feColorMatrix>
            <feMerge>
                <feMergeNode in="shadowMatrixOuter1"></feMergeNode>
                <feMergeNode in="SourceGraphic"></feMergeNode>
            </feMerge>
        </filter>
    </defs>
    <g stroke="none" stroke-width="1" fill="none" fill-rule="evenodd">
        <g filter="url(#filter-1)" transform="translate(4, 2)">
            <path d="M15,0 C23.2842712,0 30,6.71572875 30,15 C30,18.5340559 28.7997786,21.7876714 26.8312696,24.3600688 L15,40 L3.16873036,24.3600688 C1.20022143,21.7876714 0,18.5340559 0,15 C0,6.71572875 6.71572875,0 15,0 Z" fill="#27AE60"></path>
            <circle fill="#FFFFFF" cx="15" cy="15" r="10"></circle>
            <g transform="translate(9, 9)">
                <circle stroke="#333333" stroke-width="1.2" cx="6" cy="6" r="6"></circle>
                <path d="M9.5,6 C9.5,6.66666667 9.33333333,7.16666667 9,7.5 C8.66666667,7.83333333 8.16666667,8 7.5,8 L4.5,8 C3.83333333,8 3.33333333,7.83333333 3,7.5 C2.66666667,7.16666667 2.5,6.66666667 2.5,6 L2.5,5 L4,5 L4,6 C4,6.16666667 4.08333333,6.25 4.25,6.25 L7.75,6.25 C7.91666667,6.25 8,6.16666667 8,6 L8,5 L9.5,5 L9.5,6 Z" fill="#333333"></path>
                <rect fill="#333333" x="2.5" y="3.75" width="7" height="1.25"></rect>
                <rect fill="#333333" x="5.5" y="2.5" width="1" height="1.25"></rect>
                <rect fill="#333333" x="7.25" y="2" width="1" height="2"></rect>
                <rect fill="#333333" x="3.75" y="2" width="1" height="2"></rect>
            </g>
        </g>
    </g>
</svg>