<?xml version="1.0" encoding="UTF-8"?>
<svg width="42px" height="42px" viewBox="0 0 42 42" version="1.1" xmlns="http://www.w3.org/2000/svg" xmlns:xlink="http://www.w3.org/1999/xlink">
    <title>Bike Stopped Marker</title>
    <defs>
        <filter x="-27.8%" y="-27.8%" width="155.6%" height="155.6%" filterUnits="objectBoundingBox" id="filter-1">
            <feOffset dx="0" dy="2" in="SourceAlpha" result="shadowOffsetOuter1"></feOffset>
            <feGaussianBlur stdDeviation="2" in="shadowOffsetOuter1" result="shadowBlurOuter1"></feGaussianBlur>
            <feColorMatrix values="0 0 0 0 0   0 0 0 0 0   0 0 0 0 0  0 0 0 0.15 0" type="matrix" in="shadowBlurOuter1" result="shadowMatrixOuter1"></feColorMatrix>
            <feMerge>
                <feMergeNode in="shadowMatrixOuter1"></feMergeNode>
                <feMergeNode in="SourceGraphic"></feMergeNode>
            </feMerge>
        </filter>
    </defs>
    <g stroke="none" stroke-width="1" fill="none" fill-rule="evenodd">
        <g filter="url(#filter-1)" transform="translate(5, 3)">
            <circle fill="#F44336" cx="16" cy="16" r="16"></circle>
            <circle fill="#FFFFFF" cx="16" cy="16" r="12"></circle>
            <g transform="translate(8, 8)">
                <path d="M15.5,3 C15.5,4.65685425 14.1568542,6 12.5,6 C10.8431458,6 9.5,4.65685425 9.5,3 C9.5,1.34314575 10.8431458,0 12.5,0 C14.1568542,0 15.5,1.34314575 15.5,3 Z" fill="#F44336"></path>
                <circle fill="#333333" cx="8" cy="8" r="7" stroke="#333333" stroke-width="1.5"></circle>
                <circle fill="#FFFFFF" cx="8" cy="8" r="5"></circle>
                <rect fill="#333333" transform="translate(8, 8) rotate(45) translate(-8, -8)" x="4" y="7" width="8" height="2" rx="1"></rect>
                <rect fill="#333333" transform="translate(8, 8) rotate(-45) translate(-8, -8)" x="4" y="7" width="8" height="2" rx="1"></rect>
            </g>
        </g>
    </g>
</svg>